<svg xmlns="http://www.w3.org/2000/svg">
  <defs>
    <symbol id="iconamoon--home-light" viewBox="0 0 24 24">
	<path fill="currentColor" d="M19.75 10a.75.75 0 0 0-1.5 0zm-14 0a.75.75 0 0 0-1.5 0zm14.72 2.53a.75.75 0 1 0 1.06-1.06zM12 3l.53-.53a.75.75 0 0 0-1.06 0zm-9.53 8.47a.75.75 0 1 0 1.06 1.06zM7 21.75h10v-1.5H7zM19.75 19v-9h-1.5v9zm-14 0v-9h-1.5v9zm15.78-7.53l-9-9l-1.06 1.06l9 9zm-10.06-9l-9 9l1.06 1.06l9-9zM17 21.75A2.75 2.75 0 0 0 19.75 19h-1.5c0 .69-.56 1.25-1.25 1.25zm-10-1.5c-.69 0-1.25-.56-1.25-1.25h-1.5A2.75 2.75 0 0 0 7 21.75z" />
</symbol>

<symbol id="fluent--apps-32-regular" viewBox="0 0 32 32">
	<path fill="currentColor" d="M24.808 2.954a3.25 3.25 0 0 0-4.596 0l-3.213 3.213A3.25 3.25 0 0 0 13.75 3h-7.5A3.25 3.25 0 0 0 3 6.25v19.5A3.25 3.25 0 0 0 6.25 29h19.5A3.25 3.25 0 0 0 29 25.75v-7.5a3.25 3.25 0 0 0-3.158-3.249l3.209-3.208a3.25 3.25 0 0 0 0-4.596zM19.176 15H17v-2.176zm2.45-10.632a1.25 1.25 0 0 1 1.768 0l4.242 4.243a1.25 1.25 0 0 1 0 1.768l-4.242 4.242a1.25 1.25 0 0 1-1.768 0l-4.243-4.242a1.25 1.25 0 0 1 0-1.768zM15 6.25V15H5V6.25C5 5.56 5.56 5 6.25 5h7.5c.69 0 1.25.56 1.25 1.25M5 25.75V17h10v10H6.25C5.56 27 5 26.44 5 25.75M17 17h8.75c.69 0 1.25.56 1.25 1.25v7.5c0 .69-.56 1.25-1.25 1.25H17z" />
</symbol>

<symbol id="ri--code-box-line" viewBox="0 0 24 24">
	<path fill="currentColor" d="M3 3h18a1 1 0 0 1 1 1v16a1 1 0 0 1-1 1H3a1 1 0 0 1-1-1V4a1 1 0 0 1 1-1m1 2v14h16V5zm16 7l-3.535 3.536l-1.415-1.415L17.172 12L15.05 9.879l1.415-1.415zM6.828 12l2.122 2.121l-1.414 1.415L4 12l3.536-3.536L8.95 9.88zm4.416 5H9.116l3.64-10h2.128z" />
</symbol>

<symbol id="tabler--certificate" viewBox="0 0 24 24">
	<g fill="none" stroke="currentColor" stroke-linecap="round" stroke-linejoin="round" stroke-width="2">
		<path d="M12 15a3 3 0 1 0 6 0a3 3 0 1 0-6 0" />
		<path d="M13 17.5V22l2-1.5l2 1.5v-4.5" />
		<path d="M10 19H5a2 2 0 0 1-2-2V7c0-1.1.9-2 2-2h14a2 2 0 0 1 2 2v10a2 2 0 0 1-1 1.73M6 9h12M6 12h3m-3 3h2" />
	</g>
</symbol>
</defs>
</svg>