<svg xmlns="http://www.w3.org/2000/svg" width="1em" height="1em" viewBox="0 0 72 72">
	<rect width="72" height="72" fill="none" />
	<path fill="#fcea2b" d="M59.035 60h-46.07a.968.968 0 0 1-.965-.965v-46.07a.968.968 0 0 1 .965-.965h46.07a.968.968 0 0 1 .965.965v46.07a.968.968 0 0 1-.965.965" />
	<g fill="none" stroke="#000" stroke-linejoin="round">
		<path stroke-width="2" d="M59.035 60h-46.07a.968.968 0 0 1-.965-.965v-46.07a.968.968 0 0 1 .965-.965h46.07a.968.968 0 0 1 .965.965v46.07a.968.968 0 0 1-.965.965Z" />
		<path stroke-linecap="round" stroke-miterlimit="10" stroke-width="4.45" d="M53.82 41.34c-.456-1.777-2.429-3.11-4.793-3.11c-2.703 0-4.893 1.743-4.893 3.896c0 2.151 2.191 3.896 4.893 3.896l-.1.013c2.703 0 4.893 1.745 4.893 3.896c0 2.153-2.191 3.896-4.893 3.896c-2.364 0-4.337-1.336-4.793-3.112" clip-rule="evenodd" />
		<path stroke-linecap="round" stroke-miterlimit="10" stroke-width="4.46" d="M36.74 38.23v10.03a5.568 5.568 0 0 1-9.296 4.139" clip-rule="evenodd" />
	</g>
</svg>